<svg width="421" height="211" viewBox="0 0 421 211" fill="none" xmlns="http://www.w3.org/2000/svg">
<g clip-path="url(#clip0_2_61)">
<path d="M156.17 29.26C155.35 30.56 154.53 31.86 153.85 33.22C153.17 34.31 152.62 35.47 152.07 36.7C151.86 36.97 151.73 37.25 151.59 37.59C151.25 38.34 150.91 39.09 150.63 39.91C150.22 40.73 149.88 41.62 149.61 42.51C149.41 43.06 149.2 43.6 149.06 44.15C148.58 45.52 148.17 46.88 147.83 48.32C150.02 47.3 152.47 46.75 155.07 46.75C164.7 46.75 172.48 54.53 172.48 64.16C172.48 66.69 171.93 69.15 170.91 71.33C171.93 70.17 172.89 68.94 173.71 67.71C174.32 66.82 174.87 65.87 175.35 64.91C175.9 64.02 176.37 63.07 176.72 62.11C179.52 55.9 180.41 49.27 180.34 42.37V40.73C173.17 33.29 162.99 30.42 156.17 29.26Z" fill="url(#paint0_linear_2_61)"/>
<path d="M164.43 64.16C164.43 69.35 160.2 73.52 155.07 73.52C149.94 73.52 145.65 69.35 145.65 64.16C145.65 64.02 145.65 63.89 145.72 63.75C145.65 63.61 145.65 63.48 145.72 63.34C146.13 58.56 150.16 54.8 155.08 54.8C160 54.8 164.44 58.97 164.44 64.16H164.43Z" fill="url(#paint1_linear_2_61)"/>
<path d="M184.27 45.99C184.27 45.99 184.2 45.85 184 45.58C183.73 45.17 183.45 44.69 183.18 44.28C182.98 43.94 182.7 43.53 182.36 43.12C181.88 42.44 181.2 41.69 180.45 40.87C180.45 40.87 180.45 40.8 180.38 40.8C179.77 40.12 179.01 39.37 178.19 38.75C177.85 38.41 177.51 38.14 177.17 37.86C177.17 37.86 180.93 43.73 179.49 52.68L179.56 52.54V52.68C179.49 52.75 179.56 52.82 179.56 52.82C178.95 55.96 178.06 59.03 176.69 61.97C176.35 62.93 175.87 63.88 175.32 64.77C174.84 65.73 174.3 66.68 173.68 67.57C172.93 68.73 172.04 69.82 171.08 70.92C171.01 70.99 170.94 71.13 170.87 71.19C169.91 72.35 168.89 73.51 167.8 74.6C167.46 75.01 167.12 75.35 166.71 75.76C165.62 76.99 164.39 78.22 163.23 79.38C163.183 79.4266 163.137 79.4733 163.09 79.52C159.4 83.34 155.71 87.37 153.46 92.22C153.12 92.9 152.85 93.59 152.64 94.27C154.35 97.62 156.4 100.83 158.65 103.83C159.54 105.06 160.49 106.22 161.45 107.31C161.59 107.38 161.66 107.51 161.72 107.58C162.88 108.95 164.11 110.24 165.41 111.47C165.62 109.97 165.96 108.53 166.5 107.1C167.59 103.96 169.23 101.02 171.14 98.22C172.85 95.69 174.76 93.23 176.53 90.78C176.6 90.71 176.67 90.64 176.74 90.51C182.54 84.09 188.55 77.06 188.55 62.92C188.55 55.89 186.84 50.42 184.25 45.98L184.27 45.99Z" fill="url(#paint2_linear_2_61)"/>
<path d="M264.58 100.18C265.4 98.88 266.22 97.58 266.9 96.22C267.58 95.13 268.13 93.97 268.68 92.74C268.89 92.47 269.02 92.19 269.16 91.85C269.5 91.1 269.84 90.35 270.12 89.53C270.53 88.71 270.87 87.82 271.14 86.93C271.34 86.38 271.55 85.84 271.69 85.29C272.17 83.92 272.58 82.56 272.92 81.12C270.73 82.14 268.28 82.69 265.68 82.69C256.05 82.69 248.27 74.91 248.27 65.28C248.27 62.75 248.82 60.29 249.84 58.11C248.82 59.27 247.86 60.5 247.04 61.73C246.43 62.62 245.88 63.57 245.4 64.53C244.85 65.42 244.38 66.37 244.03 67.33C241.23 73.54 240.34 80.17 240.41 87.07V88.71C247.58 96.15 257.76 99.02 264.58 100.18Z" fill="url(#paint3_linear_2_61)"/>
<path d="M256.31 65.28C256.31 60.09 260.54 55.92 265.67 55.92C270.86 55.92 275.09 60.09 275.09 65.28C275.09 65.42 275.09 65.55 275.02 65.69C275.09 65.83 275.09 65.96 275.02 66.1C274.61 70.88 270.58 74.64 265.66 74.64C260.54 74.64 256.3 70.47 256.3 65.28H256.31Z" fill="url(#paint4_linear_2_61)"/>
<path d="M236.48 83.45C236.48 83.45 236.55 83.59 236.75 83.86C237.02 84.27 237.3 84.75 237.57 85.16C237.77 85.5 238.05 85.91 238.39 86.32C238.87 87 239.55 87.75 240.3 88.57C240.3 88.57 240.3 88.64 240.37 88.64C240.98 89.32 241.74 90.07 242.56 90.69C242.9 91.03 243.24 91.3 243.58 91.58C243.58 91.58 239.82 85.71 241.26 76.76L241.19 76.9V76.76C241.26 76.69 241.19 76.62 241.19 76.62C241.8 73.48 242.69 70.41 244.06 67.47C244.4 66.51 244.88 65.56 245.43 64.67C245.91 63.71 246.45 62.76 247.07 61.87C247.82 60.71 248.71 59.62 249.67 58.52C249.74 58.45 249.81 58.31 249.88 58.25C250.84 57.09 251.86 55.93 252.95 54.84C253.29 54.43 253.63 54.09 254.04 53.68C255.13 52.45 256.36 51.22 257.52 50.06C257.567 50.0133 257.613 49.9666 257.66 49.92C261.35 46.1 265.04 42.07 267.29 37.22C267.63 36.54 267.9 35.85 268.11 35.17C266.4 31.82 264.35 28.61 262.1 25.61C261.21 24.38 260.26 23.22 259.3 22.13C259.16 22.06 259.09 21.93 259.03 21.86C257.87 20.49 256.64 19.2 255.34 17.97C255.13 19.47 254.79 20.91 254.25 22.34C253.16 25.48 251.52 28.42 249.61 31.22C247.9 33.75 245.99 36.21 244.22 38.66C244.15 38.73 244.08 38.8 244.01 38.93C238.21 45.35 232.2 52.38 232.2 66.52C232.2 73.55 233.91 79.02 236.5 83.46L236.48 83.45Z" fill="url(#paint5_linear_2_61)"/>
<path d="M174.91 118.93C176.21 119.75 177.51 120.57 178.87 121.25C179.96 121.93 181.12 122.48 182.35 123.03C182.62 123.24 182.9 123.37 183.24 123.51C183.99 123.85 184.74 124.19 185.56 124.47C186.38 124.88 187.27 125.22 188.16 125.49C188.71 125.69 189.25 125.9 189.8 126.04C191.17 126.52 192.53 126.93 193.97 127.27C192.95 125.08 192.4 122.63 192.4 120.03C192.4 110.4 200.18 102.62 209.81 102.62C212.34 102.62 214.8 103.17 216.98 104.19C215.82 103.17 214.59 102.21 213.36 101.39C212.47 100.78 211.52 100.23 210.56 99.75C209.67 99.2 208.72 98.73 207.76 98.38C201.55 95.58 194.92 94.69 188.02 94.76H186.38C178.94 101.93 176.07 112.11 174.91 118.93Z" fill="url(#paint6_linear_2_61)"/>
<path d="M209.81 110.66C215 110.66 219.17 114.89 219.17 120.02C219.17 125.15 215 129.44 209.81 129.44C209.67 129.44 209.54 129.44 209.4 129.37C209.26 129.44 209.13 129.44 208.99 129.37C204.21 128.96 200.45 124.93 200.45 120.01C200.45 115.09 204.62 110.65 209.81 110.65V110.66Z" fill="url(#paint7_linear_2_61)"/>
<path d="M191.64 90.83C191.64 90.83 191.5 90.9 191.23 91.1C190.82 91.37 190.34 91.65 189.93 91.92C189.59 92.12 189.18 92.4 188.77 92.74C188.09 93.22 187.34 93.9 186.52 94.65C186.52 94.65 186.45 94.65 186.45 94.72C185.77 95.33 185.02 96.09 184.4 96.91C184.06 97.25 183.79 97.59 183.51 97.93C183.51 97.93 189.38 94.17 198.33 95.61L198.19 95.54H198.33C198.4 95.61 198.47 95.54 198.47 95.54C201.61 96.15 204.68 97.04 207.62 98.41C208.58 98.75 209.53 99.23 210.42 99.78C211.38 100.26 212.33 100.8 213.22 101.42C214.38 102.17 215.47 103.06 216.57 104.02C216.64 104.09 216.78 104.16 216.84 104.23C218 105.19 219.16 106.21 220.25 107.3C220.66 107.64 221 107.98 221.41 108.39C222.64 109.48 223.87 110.71 225.03 111.87C225.077 111.917 225.123 111.963 225.17 112.01C228.99 115.7 233.02 119.39 237.87 121.64C238.55 121.98 239.24 122.25 239.92 122.46C243.27 120.75 246.48 118.7 249.48 116.45C250.71 115.56 251.87 114.61 252.96 113.65C253.03 113.51 253.16 113.44 253.23 113.38C254.6 112.22 255.89 110.99 257.12 109.69C255.62 109.48 254.18 109.14 252.75 108.6C249.61 107.51 246.67 105.87 243.87 103.96C241.34 102.25 238.88 100.34 236.43 98.57C236.36 98.5 236.29 98.43 236.16 98.36C229.74 92.56 222.71 86.55 208.57 86.55C201.54 86.55 196.07 88.26 191.63 90.85L191.64 90.83Z" fill="url(#paint8_linear_2_61)"/>
<path d="M245.83 10.52C244.53 9.69999 243.23 8.87999 241.87 8.19999C240.78 7.51999 239.62 6.96999 238.39 6.41999C238.12 6.20999 237.84 6.07999 237.5 5.93999C236.75 5.59999 236 5.25999 235.18 4.97999C234.36 4.56999 233.47 4.22999 232.58 3.95999C232.03 3.75999 231.49 3.54999 230.94 3.40999C229.57 2.92999 228.21 2.51999 226.77 2.17999C227.79 4.36999 228.34 6.81999 228.34 9.41999C228.34 19.05 220.56 26.83 210.93 26.83C208.4 26.83 205.94 26.28 203.76 25.26C204.92 26.28 206.15 27.24 207.38 28.06C208.27 28.67 209.22 29.22 210.18 29.7C211.07 30.25 212.02 30.72 212.98 31.07C219.19 33.87 225.82 34.76 232.72 34.69H234.36C241.8 27.52 244.67 17.34 245.83 10.52Z" fill="url(#paint9_linear_2_61)"/>
<path d="M210.94 18.78C205.75 18.78 201.58 14.55 201.58 9.42C201.58 4.23 205.75 0 210.94 0C211.08 0 211.21 0 211.35 0.07C211.48 0 211.62 0 211.76 0.07C216.54 0.48 220.3 4.51 220.3 9.43C220.3 14.55 216.13 18.79 210.94 18.79V18.78Z" fill="url(#paint10_linear_2_61)"/>
<path d="M229.1 38.62C229.1 38.62 229.24 38.55 229.51 38.35C229.92 38.08 230.4 37.8 230.81 37.53C231.15 37.33 231.56 37.05 231.97 36.71C232.65 36.23 233.4 35.55 234.22 34.8C234.22 34.8 234.29 34.8 234.29 34.73C234.97 34.12 235.72 33.36 236.34 32.54C236.68 32.2 236.95 31.86 237.23 31.52C237.23 31.52 231.36 35.28 222.41 33.84L222.55 33.91H222.41C222.34 33.84 222.27 33.91 222.27 33.91C219.13 33.3 216.06 32.41 213.12 31.04C212.16 30.7 211.21 30.22 210.32 29.67C209.36 29.19 208.41 28.65 207.52 28.03C206.36 27.28 205.27 26.39 204.17 25.43C204.1 25.36 203.96 25.29 203.9 25.22C202.74 24.26 201.58 23.24 200.49 22.15C200.08 21.81 199.74 21.47 199.33 21.06C198.1 19.97 196.87 18.74 195.71 17.58C195.663 17.5333 195.617 17.4867 195.57 17.44C191.75 13.75 187.72 10.06 182.87 7.80999C182.19 7.46999 181.5 7.19999 180.82 6.98999C177.47 8.69999 174.26 10.75 171.26 13C170.03 13.89 168.87 14.84 167.78 15.8C167.71 15.94 167.58 16.01 167.51 16.07C166.14 17.23 164.85 18.46 163.62 19.76C165.12 19.97 166.56 20.31 167.99 20.85C171.13 21.94 174.07 23.58 176.87 25.49C179.4 27.2 181.86 29.11 184.31 30.88C184.38 30.95 184.45 31.02 184.58 31.09C191 36.89 198.03 42.9 212.17 42.9C219.2 42.9 224.67 41.19 229.11 38.6L229.1 38.62Z" fill="url(#paint11_linear_2_61)"/>
<path d="M93.63 178.29H102.62V183.23H88.5V160.76H102.46V165.7H93.63V169.43H101.66V174.31H93.63V178.29Z" fill="url(#paint12_linear_2_61)"/>
<path d="M119.78 178.29H128.76V183.23H114.64V160.76H128.6V165.7H119.78V169.43H127.8V174.31H119.78V178.29Z" fill="url(#paint13_linear_2_61)"/>
<path d="M146.19 183.23L138.87 160.76H144.49L149.47 177.29L154.45 160.76H160.07L152.75 183.23H146.2H146.19Z" fill="url(#paint14_linear_2_61)"/>
<path d="M210.54 170.71V172.64C210.54 176.01 209.48 178.68 207.39 180.7C205.31 182.69 202.67 183.68 199.46 183.68C195.96 183.68 193.07 182.56 190.76 180.31C188.48 178.06 187.33 175.3 187.33 172.03C187.33 168.76 188.45 166 190.73 163.72C193.01 161.44 195.8 160.32 199.11 160.32C203.31 160.32 207.01 162.37 208.93 165.46L204.57 167.96C203.58 166.42 201.52 165.33 199.08 165.33C197.19 165.33 195.58 165.97 194.33 167.22C193.08 168.47 192.47 170.11 192.47 172.06C192.47 174.01 193.11 175.59 194.39 176.84C195.67 178.06 197.37 178.67 199.53 178.67C202.51 178.67 204.41 177.51 205.28 175.2H199.28V170.71H210.55H210.54Z" fill="url(#paint15_linear_2_61)"/>
<path d="M234.38 183.23L230.15 175.85H227.71V183.23H222.57V160.76H231.56C233.71 160.76 235.5 161.5 237.02 163.01C238.53 164.52 239.27 166.32 239.27 168.47C239.27 171.2 237.6 173.71 235.13 174.99L239.91 183.24H234.39L234.38 183.23ZM227.7 165.58V171.36H231.55C232.96 171.36 234.12 170.11 234.12 168.47C234.12 166.83 232.96 165.58 231.55 165.58H227.7Z" fill="url(#paint16_linear_2_61)"/>
<path d="M262.17 183.67C258.93 183.67 256.17 182.55 253.89 180.3C251.61 178.05 250.49 175.29 250.49 171.99C250.49 168.69 251.61 165.92 253.89 163.67C256.17 161.42 258.93 160.3 262.17 160.3C265.41 160.3 268.17 161.42 270.45 163.67C272.73 165.92 273.85 168.68 273.85 171.99C273.85 175.3 272.73 178.05 270.45 180.3C268.17 182.55 265.41 183.67 262.17 183.67ZM262.17 178.67C264.03 178.67 265.57 178.06 266.82 176.8C268.07 175.55 268.71 173.95 268.71 171.99C268.71 170.03 268.07 168.42 266.82 167.17C265.57 165.92 264.03 165.31 262.17 165.31C260.31 165.31 258.74 165.92 257.49 167.17C256.24 168.42 255.63 170.02 255.63 171.99C255.63 173.96 256.24 175.55 257.49 176.8C258.74 178.05 260.31 178.67 262.17 178.67Z" fill="url(#paint17_linear_2_61)"/>
<path d="M285.72 160.76H290.86V175.53C290.86 177.62 292.05 178.68 294.39 178.68C296.73 178.68 297.92 177.62 297.92 175.53V160.76H303.06V175.97C303.06 178.32 302.26 180.21 300.62 181.59C298.99 182.96 296.93 183.67 294.39 183.67C291.85 183.67 289.8 182.96 288.16 181.59C286.52 180.21 285.72 178.32 285.72 175.97V160.76Z" fill="url(#paint18_linear_2_61)"/>
<path d="M324.39 160.76C326.6 160.76 328.47 161.5 329.98 163.01C331.49 164.52 332.26 166.32 332.26 168.47C332.26 170.62 331.49 172.42 329.98 173.93C328.47 175.44 326.61 176.18 324.39 176.18H321.02V183.24H315.88V160.77H324.39V160.76ZM324.39 171.35C325.96 171.35 327.12 170.1 327.12 168.46C327.12 166.82 325.97 165.57 324.39 165.57H321.02V171.35H324.39Z" fill="url(#paint19_linear_2_61)"/>
<path d="M10.95 206.43C10.95 207.64 10.52 208.66 9.67 209.49C8.82 210.31 7.78 210.72 6.55 210.72H0V195.55H6.07C7.26 195.55 8.26 195.94 9.08 196.74C9.9 197.54 10.31 198.51 10.31 199.69C10.31 201.03 9.77 202.09 8.66 202.85C10.05 203.52 10.94 204.8 10.94 206.42L10.95 206.43ZM2.02 197.44V202.07H6.07C7.35 202.07 8.32 201.05 8.32 199.76C8.32 199.13 8.11 198.59 7.65 198.13C7.22 197.68 6.7 197.44 6.07 197.44H2.02ZM6.55 208.84C7.91 208.84 8.95 207.76 8.95 206.37C8.95 205.7 8.71 205.11 8.23 204.64C7.78 204.16 7.21 203.93 6.54 203.93H2.02V208.85H6.55V208.84Z" fill="url(#paint20_linear_2_61)"/>
<path d="M22.79 195.55H24.8V210.72H22.79V195.55Z" fill="url(#paint21_linear_2_61)"/>
<path d="M52.15 203.2V204.11C52.15 206.08 51.48 207.73 50.11 209.05C48.74 210.35 46.95 211 44.71 211C42.47 211 40.48 210.24 38.96 208.73C37.46 207.19 36.71 205.33 36.71 203.13C36.71 200.93 37.47 199.08 38.96 197.56C40.48 196.02 42.38 195.27 44.66 195.27C46.07 195.27 47.35 195.62 48.52 196.29C49.69 196.96 50.6 197.82 51.23 198.93L49.5 199.95C48.63 198.3 46.75 197.22 44.64 197.22C42.91 197.22 41.48 197.79 40.37 198.93C39.26 200.06 38.7 201.46 38.7 203.13C38.7 204.8 39.26 206.21 40.37 207.34C41.5 208.47 42.95 209.03 44.72 209.03C47.75 209.03 49.71 207.39 50.12 205.02H44.55V203.2H52.14H52.15Z" fill="url(#paint22_linear_2_61)"/>
<path d="M82.91 210.72L77.49 195.55H79.66L84.06 208.21L88.44 195.55H90.63L85.19 210.72H82.92H82.91Z" fill="url(#paint23_linear_2_61)"/>
<path d="M101.86 195.55H103.88V210.72H101.86V195.55Z" fill="url(#paint24_linear_2_61)"/>
<path d="M115.51 207.28L117.24 206.29C117.82 208.13 119.19 209.04 121.29 209.04C123.39 209.04 124.5 208.11 124.5 206.71C124.5 205.99 124.22 205.45 123.68 205.08C123.14 204.71 122.21 204.34 120.93 203.93L119.48 203.45C119.16 203.32 118.72 203.12 118.23 202.89C117.73 202.62 117.36 202.37 117.12 202.1C116.62 201.56 116.17 200.67 116.17 199.57C116.17 198.25 116.62 197.21 117.56 196.45C118.49 195.67 119.62 195.28 120.94 195.28C123.35 195.28 125.19 196.6 126.08 198.59L124.39 199.56C123.74 198 122.59 197.22 120.94 197.22C119.29 197.22 118.19 198.09 118.19 199.47C118.19 200.14 118.43 200.64 118.91 200.99C119.39 201.34 120.21 201.7 121.38 202.07L122.27 202.36C122.44 202.42 122.7 202.51 123.07 202.66C123.83 202.94 124 203.05 124.59 203.37C125.2 203.7 125.39 203.94 125.76 204.37C126.3 204.91 126.52 205.69 126.52 206.64C126.52 207.96 126.05 209.02 125.07 209.83C124.09 210.61 122.84 211 121.28 211C118.44 211 116.34 209.59 115.53 207.27L115.51 207.28Z" fill="url(#paint25_linear_2_61)"/>
<path d="M138.23 195.55H140.24V210.72H138.23V195.55Z" fill="url(#paint26_linear_2_61)"/>
<path d="M154.44 197.57C155.96 196.03 157.82 195.28 160.01 195.28C162.2 195.28 164.06 196.03 165.58 197.57C167.12 199.09 167.87 200.95 167.87 203.14C167.87 205.33 167.11 207.17 165.58 208.72C164.06 210.25 162.2 211.01 160.01 211.01C157.82 211.01 155.96 210.25 154.44 208.72C152.93 207.18 152.17 205.34 152.17 203.14C152.17 200.94 152.93 199.09 154.44 197.57ZM164.17 198.94C163.07 197.79 161.68 197.23 160.01 197.23C158.34 197.23 156.95 197.8 155.83 198.94C154.73 200.07 154.16 201.47 154.16 203.14C154.16 204.81 154.72 206.2 155.83 207.35C156.96 208.48 158.34 209.04 160.01 209.04C161.68 209.04 163.07 208.48 164.17 207.35C165.3 206.2 165.86 204.82 165.86 203.14C165.86 201.46 165.3 200.07 164.17 198.94Z" fill="url(#paint27_linear_2_61)"/>
<path d="M189.19 195.55H191.2V210.72H189.58L181.78 199.38V210.72H179.76V195.55H181.39L189.19 206.87V195.55Z" fill="url(#paint28_linear_2_61)"/>
<path d="M227.53 197.46H220.81V202.38H227.25V204.29H220.81V210.73H218.79V195.56H227.53V197.47V197.46Z" fill="url(#paint29_linear_2_61)"/>
<path d="M248.76 210.72L247.53 207.32H240.7L239.47 210.72H237.32L242.98 195.55H245.26L250.92 210.72H248.77H248.76ZM241.39 205.43H246.83L244.1 197.95L241.39 205.43Z" fill="url(#paint30_linear_2_61)"/>
<path d="M271.16 210.72L267.76 204.91H264.19V210.72H262.18V195.55H268.25C269.55 195.55 270.65 196 271.58 196.94C272.51 197.85 272.97 198.95 272.97 200.25C272.97 201.22 272.67 202.14 272.08 202.94C271.49 203.75 270.76 204.33 269.83 204.65L273.4 210.72H271.17H271.16ZM264.18 197.44V203.1H268.23C268.99 203.1 269.62 202.82 270.14 202.27C270.68 201.71 270.94 201.04 270.94 200.26C270.94 199.48 270.68 198.81 270.14 198.27C269.62 197.73 268.99 197.45 268.23 197.45H264.18V197.44Z" fill="url(#paint31_linear_2_61)"/>
<path d="M308.48 197.46H301.76V202.38H308.2V204.29H301.76V210.73H299.75V195.56H308.48V197.47V197.46Z" fill="url(#paint32_linear_2_61)"/>
<path d="M320.2 195.55H322.21V205.54C322.21 207.69 323.53 209.03 325.9 209.03C328.27 209.03 329.58 207.69 329.58 205.54V195.55H331.57V205.63C331.57 207.26 331.05 208.58 329.99 209.55C328.93 210.53 327.56 211 325.9 211C324.24 211 322.84 210.53 321.78 209.55C320.72 208.58 320.2 207.26 320.2 205.63V195.55Z" fill="url(#paint33_linear_2_61)"/>
<path d="M353.82 195.55V197.46H349.34V210.72H347.35V197.46H342.89V195.55H353.83H353.82Z" fill="url(#paint34_linear_2_61)"/>
<path d="M365.08 195.55H367.1V205.54C367.1 207.69 368.42 209.03 370.78 209.03C373.14 209.03 374.47 207.69 374.47 205.54V195.55H376.46V205.63C376.46 207.26 375.94 208.58 374.88 209.55C373.82 210.53 372.45 211 370.78 211C369.11 211 367.73 210.53 366.67 209.55C365.61 208.58 365.09 207.26 365.09 205.63V195.55H365.08Z" fill="url(#paint35_linear_2_61)"/>
<path d="M397.98 210.72L394.58 204.91H391.01V210.72H389V195.55H395.07C396.37 195.55 397.47 196 398.4 196.94C399.33 197.85 399.79 198.95 399.79 200.25C399.79 201.22 399.49 202.14 398.9 202.94C398.31 203.75 397.58 204.33 396.65 204.65L400.22 210.72H397.99H397.98ZM391 197.44V203.1H395.05C395.81 203.1 396.44 202.82 396.96 202.27C397.5 201.71 397.76 201.04 397.76 200.26C397.76 199.48 397.5 198.81 396.96 198.27C396.44 197.73 395.81 197.45 395.05 197.45H391V197.44Z" fill="url(#paint36_linear_2_61)"/>
<path d="M413.7 208.82H420.74V210.73H411.68V195.56H420.63V197.47H413.69V202.13H420.09V204.01H413.69V208.83L413.7 208.82Z" fill="url(#paint37_linear_2_61)"/>
</g>
<defs>
<linearGradient id="paint0_linear_2_61" x1="175.56" y1="61.6" x2="155.5" y2="31.74" gradientUnits="userSpaceOnUse">
<stop stop-color="#8C6C29"/>
<stop offset="1" stop-color="#FEEA96"/>
</linearGradient>
<linearGradient id="paint1_linear_2_61" x1="143.64" y1="64.49" x2="163.83" y2="63.91" gradientUnits="userSpaceOnUse">
<stop stop-color="#8C6C29"/>
<stop offset="1" stop-color="#FEEA96"/>
</linearGradient>
<linearGradient id="paint2_linear_2_61" x1="151.51" y1="101.96" x2="187.54" y2="52.27" gradientUnits="userSpaceOnUse">
<stop stop-color="#8D6527"/>
<stop offset="0.29" stop-color="#EBD580"/>
<stop offset="0.55" stop-color="#9E7F34"/>
<stop offset="0.79" stop-color="#FEEA96"/>
<stop offset="1" stop-color="#9C7531"/>
</linearGradient>
<linearGradient id="paint3_linear_2_61" x1="240.84" y1="71.68" x2="271.14" y2="89.12" gradientUnits="userSpaceOnUse">
<stop stop-color="#8C6C29"/>
<stop offset="1" stop-color="#FEEA96"/>
</linearGradient>
<linearGradient id="paint4_linear_2_61" x1="277.12" y1="65.69" x2="256.85" y2="64.97" gradientUnits="userSpaceOnUse">
<stop stop-color="#8C6C29"/>
<stop offset="1" stop-color="#FEEA96"/>
</linearGradient>
<linearGradient id="paint5_linear_2_61" x1="238.67" y1="85.18" x2="258.28" y2="21.1" gradientUnits="userSpaceOnUse">
<stop stop-color="#8D6527"/>
<stop offset="0.29" stop-color="#EBD580"/>
<stop offset="0.55" stop-color="#9E7F34"/>
<stop offset="0.79" stop-color="#FEEA96"/>
<stop offset="1" stop-color="#9C7531"/>
</linearGradient>
<linearGradient id="paint6_linear_2_61" x1="202.42" y1="98.68" x2="180.41" y2="121.57" gradientUnits="userSpaceOnUse">
<stop stop-color="#8C6C29"/>
<stop offset="1" stop-color="#FEEA96"/>
</linearGradient>
<linearGradient id="paint7_linear_2_61" x1="209.06" y1="130.95" x2="210.37" y2="111.91" gradientUnits="userSpaceOnUse">
<stop stop-color="#8C6C29"/>
<stop offset="1" stop-color="#FEEA96"/>
</linearGradient>
<linearGradient id="paint8_linear_2_61" x1="193.66" y1="92.33" x2="253.6" y2="113.69" gradientUnits="userSpaceOnUse">
<stop stop-color="#8D6527"/>
<stop offset="0.29" stop-color="#EBD580"/>
<stop offset="0.55" stop-color="#9E7F34"/>
<stop offset="0.79" stop-color="#FEEA96"/>
<stop offset="1" stop-color="#9C7531"/>
</linearGradient>
<linearGradient id="paint9_linear_2_61" x1="217.75" y1="30.82" x2="243.03" y2="6.39999" gradientUnits="userSpaceOnUse">
<stop stop-color="#8C6C29"/>
<stop offset="1" stop-color="#FEEA96"/>
</linearGradient>
<linearGradient id="paint10_linear_2_61" x1="210.46" y1="-0.3" x2="211.33" y2="17.42" gradientUnits="userSpaceOnUse">
<stop stop-color="#8C6C29"/>
<stop offset="1" stop-color="#FEEA96"/>
</linearGradient>
<linearGradient id="paint11_linear_2_61" x1="159.1" y1="17.31" x2="238" y2="34.53" gradientUnits="userSpaceOnUse">
<stop stop-color="#8D6527"/>
<stop offset="0.29" stop-color="#EBD580"/>
<stop offset="0.55" stop-color="#9E7F34"/>
<stop offset="0.79" stop-color="#FEEA96"/>
<stop offset="1" stop-color="#9C7531"/>
</linearGradient>
<linearGradient id="paint12_linear_2_61" x1="-2.42002" y1="169.4" x2="414.88" y2="180.45" gradientUnits="userSpaceOnUse">
<stop stop-color="#8D6527"/>
<stop offset="0.29" stop-color="#EBD580"/>
<stop offset="0.55" stop-color="#9E7F34"/>
<stop offset="0.79" stop-color="#FEEA96"/>
<stop offset="1" stop-color="#9C7531"/>
</linearGradient>
<linearGradient id="paint13_linear_2_61" x1="-2.39995" y1="168.71" x2="414.9" y2="179.75" gradientUnits="userSpaceOnUse">
<stop stop-color="#8D6527"/>
<stop offset="0.29" stop-color="#EBD580"/>
<stop offset="0.55" stop-color="#9E7F34"/>
<stop offset="0.79" stop-color="#FEEA96"/>
<stop offset="1" stop-color="#9C7531"/>
</linearGradient>
<linearGradient id="paint14_linear_2_61" x1="-2.38008" y1="167.88" x2="414.92" y2="178.92" gradientUnits="userSpaceOnUse">
<stop stop-color="#8D6527"/>
<stop offset="0.29" stop-color="#EBD580"/>
<stop offset="0.55" stop-color="#9E7F34"/>
<stop offset="0.79" stop-color="#FEEA96"/>
<stop offset="1" stop-color="#9C7531"/>
</linearGradient>
<linearGradient id="paint15_linear_2_61" x1="-2.33999" y1="166.66" x2="414.95" y2="177.7" gradientUnits="userSpaceOnUse">
<stop stop-color="#8D6527"/>
<stop offset="0.29" stop-color="#EBD580"/>
<stop offset="0.55" stop-color="#9E7F34"/>
<stop offset="0.79" stop-color="#FEEA96"/>
<stop offset="1" stop-color="#9C7531"/>
</linearGradient>
<linearGradient id="paint16_linear_2_61" x1="-2.31994" y1="165.92" x2="414.97" y2="176.96" gradientUnits="userSpaceOnUse">
<stop stop-color="#8D6527"/>
<stop offset="0.29" stop-color="#EBD580"/>
<stop offset="0.55" stop-color="#9E7F34"/>
<stop offset="0.79" stop-color="#FEEA96"/>
<stop offset="1" stop-color="#9C7531"/>
</linearGradient>
<linearGradient id="paint17_linear_2_61" x1="-2.30002" y1="165" x2="415" y2="176.04" gradientUnits="userSpaceOnUse">
<stop stop-color="#8D6527"/>
<stop offset="0.29" stop-color="#EBD580"/>
<stop offset="0.55" stop-color="#9E7F34"/>
<stop offset="0.79" stop-color="#FEEA96"/>
<stop offset="1" stop-color="#9C7531"/>
</linearGradient>
<linearGradient id="paint18_linear_2_61" x1="-2.27993" y1="164.25" x2="415.02" y2="175.3" gradientUnits="userSpaceOnUse">
<stop stop-color="#8D6527"/>
<stop offset="0.29" stop-color="#EBD580"/>
<stop offset="0.55" stop-color="#9E7F34"/>
<stop offset="0.79" stop-color="#FEEA96"/>
<stop offset="1" stop-color="#9C7531"/>
</linearGradient>
<linearGradient id="paint19_linear_2_61" x1="-2.2601" y1="163.46" x2="415.04" y2="174.5" gradientUnits="userSpaceOnUse">
<stop stop-color="#8D6527"/>
<stop offset="0.29" stop-color="#EBD580"/>
<stop offset="0.55" stop-color="#9E7F34"/>
<stop offset="0.79" stop-color="#FEEA96"/>
<stop offset="1" stop-color="#9C7531"/>
</linearGradient>
<linearGradient id="paint20_linear_2_61" x1="-3.3" y1="202.97" x2="413.99" y2="214.01" gradientUnits="userSpaceOnUse">
<stop stop-color="#8D6527"/>
<stop offset="0.29" stop-color="#EBD580"/>
<stop offset="0.55" stop-color="#9E7F34"/>
<stop offset="0.79" stop-color="#FEEA96"/>
<stop offset="1" stop-color="#9C7531"/>
</linearGradient>
<linearGradient id="paint21_linear_2_61" x1="-3.28997" y1="202.42" x2="414.01" y2="213.46" gradientUnits="userSpaceOnUse">
<stop stop-color="#8D6527"/>
<stop offset="0.29" stop-color="#EBD580"/>
<stop offset="0.55" stop-color="#9E7F34"/>
<stop offset="0.79" stop-color="#FEEA96"/>
<stop offset="1" stop-color="#9C7531"/>
</linearGradient>
<linearGradient id="paint22_linear_2_61" x1="-3.27002" y1="201.87" x2="414.02" y2="212.91" gradientUnits="userSpaceOnUse">
<stop stop-color="#8D6527"/>
<stop offset="0.29" stop-color="#EBD580"/>
<stop offset="0.55" stop-color="#9E7F34"/>
<stop offset="0.79" stop-color="#FEEA96"/>
<stop offset="1" stop-color="#9C7531"/>
</linearGradient>
<linearGradient id="paint23_linear_2_61" x1="-3.25" y1="200.76" x2="414.05" y2="211.8" gradientUnits="userSpaceOnUse">
<stop stop-color="#8D6527"/>
<stop offset="0.29" stop-color="#EBD580"/>
<stop offset="0.55" stop-color="#9E7F34"/>
<stop offset="0.79" stop-color="#FEEA96"/>
<stop offset="1" stop-color="#9C7531"/>
</linearGradient>
<linearGradient id="paint24_linear_2_61" x1="-3.22984" y1="200.33" x2="414.059" y2="211.37" gradientUnits="userSpaceOnUse">
<stop stop-color="#8D6527"/>
<stop offset="0.29" stop-color="#EBD580"/>
<stop offset="0.55" stop-color="#9E7F34"/>
<stop offset="0.79" stop-color="#FEEA96"/>
<stop offset="1" stop-color="#9C7531"/>
</linearGradient>
<linearGradient id="paint25_linear_2_61" x1="-3.21993" y1="199.85" x2="414.08" y2="210.89" gradientUnits="userSpaceOnUse">
<stop stop-color="#8D6527"/>
<stop offset="0.29" stop-color="#EBD580"/>
<stop offset="0.55" stop-color="#9E7F34"/>
<stop offset="0.79" stop-color="#FEEA96"/>
<stop offset="1" stop-color="#9C7531"/>
</linearGradient>
<linearGradient id="paint26_linear_2_61" x1="-3.2107" y1="199.37" x2="414.091" y2="210.41" gradientUnits="userSpaceOnUse">
<stop stop-color="#8D6527"/>
<stop offset="0.29" stop-color="#EBD580"/>
<stop offset="0.55" stop-color="#9E7F34"/>
<stop offset="0.79" stop-color="#FEEA96"/>
<stop offset="1" stop-color="#9C7531"/>
</linearGradient>
<linearGradient id="paint27_linear_2_61" x1="-3.18998" y1="198.82" x2="414.1" y2="209.86" gradientUnits="userSpaceOnUse">
<stop stop-color="#8D6527"/>
<stop offset="0.29" stop-color="#EBD580"/>
<stop offset="0.55" stop-color="#9E7F34"/>
<stop offset="0.79" stop-color="#FEEA96"/>
<stop offset="1" stop-color="#9C7531"/>
</linearGradient>
<linearGradient id="paint28_linear_2_61" x1="-3.18003" y1="198.15" x2="414.12" y2="209.19" gradientUnits="userSpaceOnUse">
<stop stop-color="#8D6527"/>
<stop offset="0.29" stop-color="#EBD580"/>
<stop offset="0.55" stop-color="#9E7F34"/>
<stop offset="0.79" stop-color="#FEEA96"/>
<stop offset="1" stop-color="#9C7531"/>
</linearGradient>
<linearGradient id="paint29_linear_2_61" x1="-3.15017" y1="197.15" x2="414.15" y2="208.19" gradientUnits="userSpaceOnUse">
<stop stop-color="#8D6527"/>
<stop offset="0.29" stop-color="#EBD580"/>
<stop offset="0.55" stop-color="#9E7F34"/>
<stop offset="0.79" stop-color="#FEEA96"/>
<stop offset="1" stop-color="#9C7531"/>
</linearGradient>
<linearGradient id="paint30_linear_2_61" x1="-3.13983" y1="196.67" x2="414.16" y2="207.71" gradientUnits="userSpaceOnUse">
<stop stop-color="#8D6527"/>
<stop offset="0.29" stop-color="#EBD580"/>
<stop offset="0.55" stop-color="#9E7F34"/>
<stop offset="0.79" stop-color="#FEEA96"/>
<stop offset="1" stop-color="#9C7531"/>
</linearGradient>
<linearGradient id="paint31_linear_2_61" x1="-3.12002" y1="196.04" x2="414.18" y2="207.08" gradientUnits="userSpaceOnUse">
<stop stop-color="#8D6527"/>
<stop offset="0.29" stop-color="#EBD580"/>
<stop offset="0.55" stop-color="#9E7F34"/>
<stop offset="0.79" stop-color="#FEEA96"/>
<stop offset="1" stop-color="#9C7531"/>
</linearGradient>
<linearGradient id="paint32_linear_2_61" x1="-3.09036" y1="195.01" x2="414.2" y2="206.05" gradientUnits="userSpaceOnUse">
<stop stop-color="#8D6527"/>
<stop offset="0.29" stop-color="#EBD580"/>
<stop offset="0.55" stop-color="#9E7F34"/>
<stop offset="0.79" stop-color="#FEEA96"/>
<stop offset="1" stop-color="#9C7531"/>
</linearGradient>
<linearGradient id="paint33_linear_2_61" x1="-3.07985" y1="194.5" x2="414.22" y2="205.54" gradientUnits="userSpaceOnUse">
<stop stop-color="#8D6527"/>
<stop offset="0.29" stop-color="#EBD580"/>
<stop offset="0.55" stop-color="#9E7F34"/>
<stop offset="0.79" stop-color="#FEEA96"/>
<stop offset="1" stop-color="#9C7531"/>
</linearGradient>
<linearGradient id="paint34_linear_2_61" x1="-3.0591" y1="193.78" x2="414.24" y2="204.82" gradientUnits="userSpaceOnUse">
<stop stop-color="#8D6527"/>
<stop offset="0.29" stop-color="#EBD580"/>
<stop offset="0.55" stop-color="#9E7F34"/>
<stop offset="0.79" stop-color="#FEEA96"/>
<stop offset="1" stop-color="#9C7531"/>
</linearGradient>
<linearGradient id="paint35_linear_2_61" x1="-3.0502" y1="193.31" x2="414.25" y2="204.35" gradientUnits="userSpaceOnUse">
<stop stop-color="#8D6527"/>
<stop offset="0.29" stop-color="#EBD580"/>
<stop offset="0.55" stop-color="#9E7F34"/>
<stop offset="0.79" stop-color="#FEEA96"/>
<stop offset="1" stop-color="#9C7531"/>
</linearGradient>
<linearGradient id="paint36_linear_2_61" x1="-3.03005" y1="192.68" x2="414.27" y2="203.73" gradientUnits="userSpaceOnUse">
<stop stop-color="#8D6527"/>
<stop offset="0.29" stop-color="#EBD580"/>
<stop offset="0.55" stop-color="#9E7F34"/>
<stop offset="0.79" stop-color="#FEEA96"/>
<stop offset="1" stop-color="#9C7531"/>
</linearGradient>
<linearGradient id="paint37_linear_2_61" x1="-3.01989" y1="192.05" x2="414.28" y2="203.09" gradientUnits="userSpaceOnUse">
<stop stop-color="#8D6527"/>
<stop offset="0.29" stop-color="#EBD580"/>
<stop offset="0.55" stop-color="#9E7F34"/>
<stop offset="0.79" stop-color="#FEEA96"/>
<stop offset="1" stop-color="#9C7531"/>
</linearGradient>
<clipPath id="clip0_2_61">
<rect width="420.75" height="211" fill="white"/>
</clipPath>
</defs>
</svg>
